<mxfile host="app.diagrams.net" modified="2023-11-16T12:40:16.468Z" agent="Mozilla/5.0 (Windows NT 10.0; Win64; x64) AppleWebKit/537.36 (KHTML, like Gecko) Chrome/119.0.0.0 Safari/537.36" etag="awI4kPHorpB7xcnYrxFR" version="22.1.2" type="github">
  <diagram name="Página-1" id="xLRPM_KjDL3PalJc8kne">
    <mxGraphModel dx="2074" dy="1144" grid="1" gridSize="10" guides="1" tooltips="1" connect="1" arrows="1" fold="1" page="1" pageScale="1" pageWidth="827" pageHeight="1169" math="0" shadow="0">
      <root>
        <mxCell id="0" />
        <mxCell id="1" parent="0" />
        <mxCell id="xLo4uB2U7ToNySubDi_r-1" value="" style="rounded=0;whiteSpace=wrap;html=1;" vertex="1" parent="1">
          <mxGeometry x="14" y="40" width="800" height="1110" as="geometry" />
        </mxCell>
        <mxCell id="xLo4uB2U7ToNySubDi_r-52" style="edgeStyle=orthogonalEdgeStyle;rounded=0;orthogonalLoop=1;jettySize=auto;html=1;exitX=0.25;exitY=1;exitDx=0;exitDy=0;entryX=0.5;entryY=0;entryDx=0;entryDy=0;endArrow=none;endFill=0;" edge="1" parent="1" source="xLo4uB2U7ToNySubDi_r-7" target="xLo4uB2U7ToNySubDi_r-49">
          <mxGeometry relative="1" as="geometry" />
        </mxCell>
        <mxCell id="xLo4uB2U7ToNySubDi_r-53" style="edgeStyle=orthogonalEdgeStyle;rounded=0;orthogonalLoop=1;jettySize=auto;html=1;exitX=1;exitY=0.5;exitDx=0;exitDy=0;entryX=0.5;entryY=0;entryDx=0;entryDy=0;endArrow=none;endFill=0;" edge="1" parent="1" source="xLo4uB2U7ToNySubDi_r-7" target="xLo4uB2U7ToNySubDi_r-50">
          <mxGeometry relative="1" as="geometry" />
        </mxCell>
        <mxCell id="xLo4uB2U7ToNySubDi_r-7" value="CORRIDA" style="whiteSpace=wrap;html=1;align=center;fillColor=#f5f5f5;fontColor=#333333;strokeColor=#666666;" vertex="1" parent="1">
          <mxGeometry x="550" y="160" width="98" height="40" as="geometry" />
        </mxCell>
        <mxCell id="xLo4uB2U7ToNySubDi_r-8" style="edgeStyle=orthogonalEdgeStyle;rounded=0;orthogonalLoop=1;jettySize=auto;html=1;exitX=1;exitY=0.5;exitDx=0;exitDy=0;entryX=0;entryY=0.5;entryDx=0;entryDy=0;endArrow=none;endFill=0;" edge="1" parent="1" source="xLo4uB2U7ToNySubDi_r-9" target="xLo4uB2U7ToNySubDi_r-12">
          <mxGeometry relative="1" as="geometry" />
        </mxCell>
        <mxCell id="xLo4uB2U7ToNySubDi_r-84" style="edgeStyle=orthogonalEdgeStyle;rounded=0;orthogonalLoop=1;jettySize=auto;html=1;exitX=0.5;exitY=1;exitDx=0;exitDy=0;entryX=0.5;entryY=0;entryDx=0;entryDy=0;endArrow=none;endFill=0;" edge="1" parent="1" source="xLo4uB2U7ToNySubDi_r-9" target="xLo4uB2U7ToNySubDi_r-51">
          <mxGeometry relative="1" as="geometry" />
        </mxCell>
        <mxCell id="xLo4uB2U7ToNySubDi_r-9" value="FERIA" style="whiteSpace=wrap;html=1;align=center;fillColor=#f5f5f5;fontColor=#333333;strokeColor=#666666;" vertex="1" parent="1">
          <mxGeometry x="80" y="160" width="100" height="40" as="geometry" />
        </mxCell>
        <mxCell id="xLo4uB2U7ToNySubDi_r-10" style="edgeStyle=orthogonalEdgeStyle;rounded=0;orthogonalLoop=1;jettySize=auto;html=1;exitX=0.5;exitY=0;exitDx=0;exitDy=0;entryX=0.5;entryY=0;entryDx=0;entryDy=0;" edge="1" parent="1">
          <mxGeometry relative="1" as="geometry">
            <mxPoint x="50" y="480" as="sourcePoint" />
            <mxPoint x="50" y="480" as="targetPoint" />
          </mxGeometry>
        </mxCell>
        <mxCell id="xLo4uB2U7ToNySubDi_r-11" style="edgeStyle=orthogonalEdgeStyle;rounded=0;orthogonalLoop=1;jettySize=auto;html=1;exitX=1;exitY=0.5;exitDx=0;exitDy=0;entryX=0;entryY=0.5;entryDx=0;entryDy=0;endArrow=none;endFill=0;" edge="1" parent="1" source="xLo4uB2U7ToNySubDi_r-12" target="xLo4uB2U7ToNySubDi_r-7">
          <mxGeometry relative="1" as="geometry" />
        </mxCell>
        <mxCell id="xLo4uB2U7ToNySubDi_r-12" value="&lt;font style=&quot;font-size: 12px;&quot;&gt;HAY&lt;br&gt;1:N&lt;/font&gt;" style="shape=rhombus;perimeter=rhombusPerimeter;whiteSpace=wrap;html=1;align=center;verticalAlign=middle;fillColor=#d5e8d4;strokeColor=#82b366;" vertex="1" parent="1">
          <mxGeometry x="304" y="145" width="110" height="70" as="geometry" />
        </mxCell>
        <mxCell id="xLo4uB2U7ToNySubDi_r-13" style="rounded=0;orthogonalLoop=1;jettySize=auto;html=1;exitX=0;exitY=0.5;exitDx=0;exitDy=0;strokeColor=none;endArrow=none;endFill=0;shadow=1;" edge="1" parent="1">
          <mxGeometry relative="1" as="geometry">
            <mxPoint x="195.13" y="577" as="targetPoint" />
            <mxPoint x="163.3699999999999" y="567" as="sourcePoint" />
          </mxGeometry>
        </mxCell>
        <mxCell id="xLo4uB2U7ToNySubDi_r-14" value="(1, N)" style="text;strokeColor=none;fillColor=none;spacingLeft=4;spacingRight=4;overflow=hidden;rotatable=0;points=[[0,0.5],[1,0.5]];portConstraint=eastwest;fontSize=12;whiteSpace=wrap;html=1;" vertex="1" parent="1">
          <mxGeometry x="510" y="160" width="50" height="30" as="geometry" />
        </mxCell>
        <mxCell id="xLo4uB2U7ToNySubDi_r-15" style="edgeStyle=orthogonalEdgeStyle;rounded=0;orthogonalLoop=1;jettySize=auto;html=1;exitX=0;exitY=0.5;exitDx=0;exitDy=0;entryX=1;entryY=0.5;entryDx=0;entryDy=0;endArrow=none;endFill=0;startArrow=none;startFill=0;strokeColor=none;" edge="1" parent="1">
          <mxGeometry relative="1" as="geometry">
            <mxPoint x="91" y="368" as="sourcePoint" />
            <mxPoint x="141" y="368" as="targetPoint" />
          </mxGeometry>
        </mxCell>
        <mxCell id="xLo4uB2U7ToNySubDi_r-16" style="edgeStyle=orthogonalEdgeStyle;rounded=0;orthogonalLoop=1;jettySize=auto;html=1;exitDx=0;exitDy=0;entryX=0.5;entryY=0;entryDx=0;entryDy=0;endArrow=none;endFill=0;dashed=1;dashPattern=1 2;" edge="1" parent="1">
          <mxGeometry relative="1" as="geometry">
            <mxPoint x="154.63" y="622" as="sourcePoint" />
            <mxPoint x="154.63" y="622" as="targetPoint" />
          </mxGeometry>
        </mxCell>
        <mxCell id="xLo4uB2U7ToNySubDi_r-19" value="" style="edgeStyle=orthogonalEdgeStyle;rounded=0;orthogonalLoop=1;jettySize=auto;html=1;exitX=0;exitY=0.5;exitDx=0;exitDy=0;entryDx=0;entryDy=0;dashed=1;dashPattern=1 2;endArrow=none;endFill=0;" edge="1" parent="1">
          <mxGeometry relative="1" as="geometry">
            <mxPoint x="611.13" y="140" as="sourcePoint" />
            <mxPoint x="610.13" y="140" as="targetPoint" />
          </mxGeometry>
        </mxCell>
        <mxCell id="xLo4uB2U7ToNySubDi_r-21" value="" style="rounded=0;orthogonalLoop=1;jettySize=auto;html=1;exitX=0;exitY=0.5;exitDx=0;exitDy=0;strokeColor=none;endArrow=none;endFill=0;shadow=1;" edge="1" parent="1">
          <mxGeometry relative="1" as="geometry">
            <mxPoint x="163.3699999999999" y="557.5589123867069" as="targetPoint" />
            <mxPoint x="175.13" y="562" as="sourcePoint" />
          </mxGeometry>
        </mxCell>
        <mxCell id="xLo4uB2U7ToNySubDi_r-22" value="(1, 1)" style="text;strokeColor=none;fillColor=none;spacingLeft=4;spacingRight=4;overflow=hidden;rotatable=0;points=[[0,0.5],[1,0.5]];portConstraint=eastwest;fontSize=12;whiteSpace=wrap;html=1;" vertex="1" parent="1">
          <mxGeometry x="180" y="160" width="50" height="30" as="geometry" />
        </mxCell>
        <mxCell id="xLo4uB2U7ToNySubDi_r-30" value="EJER. 18 -&amp;nbsp; TAUROMAQUIA" style="text;html=1;align=center;verticalAlign=middle;resizable=0;points=[];autosize=1;strokeColor=#36393d;fillColor=#cce5ff;fontStyle=1;fontSize=12;" vertex="1" parent="1">
          <mxGeometry x="44" y="80" width="180" height="30" as="geometry" />
        </mxCell>
        <mxCell id="xLo4uB2U7ToNySubDi_r-31" value="&lt;div style=&quot;&quot;&gt;&lt;div style=&quot;text-align: justify;&quot;&gt;&lt;br&gt;&lt;/div&gt;&lt;div style=&quot;text-align: justify;&quot;&gt;&lt;br&gt;&lt;/div&gt;&lt;div style=&quot;text-align: justify;&quot;&gt;&lt;b&gt;&lt;font style=&quot;font-size: 13px;&quot;&gt;Un aficionado a los toros quiere crear una base de datos donde recoger todos los acontecimientos taurinos de cada temporada.&amp;nbsp;&lt;/font&gt;&lt;br&gt;&lt;/b&gt;&lt;/div&gt;&lt;div style=&quot;text-align: justify;&quot;&gt;&lt;b&gt;&lt;br&gt;&lt;/b&gt;&lt;/div&gt;&lt;div style=&quot;text-align: justify;&quot;&gt;&lt;b&gt;Los supuestos son los siguientes:&lt;/b&gt;&lt;br&gt;&lt;/div&gt;&lt;/div&gt;&lt;div style=&quot;&quot;&gt;&lt;ul&gt;&lt;li&gt;&lt;div style=&quot;text-align: justify;&quot;&gt;Los nombres de plaza, feria, ganadería, torero y peón son únicos.&amp;nbsp;&lt;/div&gt;&lt;/li&gt;&lt;li&gt;&lt;div style=&quot;text-align: justify;&quot;&gt;Una feria se celebra en una plaza y tiene un nombre único cada temporada. El director de una plaza puede serlo varias temporadas.&amp;nbsp;&lt;/div&gt;&lt;/li&gt;&lt;li&gt;&lt;div style=&quot;text-align: justify;&quot;&gt;Un peón sólo puede pertenecer a una cuadrilla de un torero durante una temporada, pudiendo pertenecer a la misma cuadrilla o a otra la siguiente temporada.&amp;nbsp;&lt;/div&gt;&lt;/li&gt;&lt;li&gt;&lt;div style=&quot;text-align: justify;&quot;&gt;El número de una corrida es único y secuencial dentro de una feria.&amp;nbsp;&lt;/div&gt;&lt;/li&gt;&lt;li&gt;&lt;div style=&quot;text-align: justify;&quot;&gt;En una corrida puede haber toros de distintas ganaderías.&lt;/div&gt;&lt;/li&gt;&lt;li&gt;&lt;div style=&quot;text-align: justify;&quot;&gt;El número del toro en una ganadería es único.&amp;nbsp;&lt;/div&gt;&lt;/li&gt;&lt;li&gt;&lt;div style=&quot;text-align: justify;&quot;&gt;Resulta interesante almacenar información sobre qué torero apadrinó a cada torero.&amp;nbsp;&lt;br&gt;&lt;/div&gt;&lt;/li&gt;&lt;/ul&gt;&lt;/div&gt;" style="text;html=1;strokeColor=none;fillColor=none;spacing=5;spacingTop=-20;whiteSpace=wrap;overflow=hidden;rounded=0;align=left;" vertex="1" parent="1">
          <mxGeometry x="44" y="880" width="740" height="230.94" as="geometry" />
        </mxCell>
        <mxCell id="xLo4uB2U7ToNySubDi_r-57" style="edgeStyle=orthogonalEdgeStyle;rounded=0;orthogonalLoop=1;jettySize=auto;html=1;exitX=0.5;exitY=1;exitDx=0;exitDy=0;entryX=0.5;entryY=0;entryDx=0;entryDy=0;endArrow=none;endFill=0;" edge="1" parent="1" source="xLo4uB2U7ToNySubDi_r-49" target="xLo4uB2U7ToNySubDi_r-55">
          <mxGeometry relative="1" as="geometry" />
        </mxCell>
        <mxCell id="xLo4uB2U7ToNySubDi_r-49" value="PAR&lt;br&gt;?" style="shape=rhombus;perimeter=rhombusPerimeter;whiteSpace=wrap;html=1;align=center;verticalAlign=middle;fillColor=#d5e8d4;strokeColor=#82b366;" vertex="1" parent="1">
          <mxGeometry x="520" y="270" width="110" height="70" as="geometry" />
        </mxCell>
        <mxCell id="xLo4uB2U7ToNySubDi_r-56" style="edgeStyle=orthogonalEdgeStyle;rounded=0;orthogonalLoop=1;jettySize=auto;html=1;exitX=0.5;exitY=1;exitDx=0;exitDy=0;entryX=0.5;entryY=0;entryDx=0;entryDy=0;endArrow=none;endFill=0;" edge="1" parent="1" source="xLo4uB2U7ToNySubDi_r-50" target="xLo4uB2U7ToNySubDi_r-54">
          <mxGeometry relative="1" as="geometry" />
        </mxCell>
        <mxCell id="xLo4uB2U7ToNySubDi_r-50" value="SALE&lt;br&gt;N:N" style="shape=rhombus;perimeter=rhombusPerimeter;whiteSpace=wrap;html=1;align=center;verticalAlign=middle;fillColor=#d5e8d4;strokeColor=#82b366;" vertex="1" parent="1">
          <mxGeometry x="680" y="270" width="110" height="70" as="geometry" />
        </mxCell>
        <mxCell id="xLo4uB2U7ToNySubDi_r-86" style="edgeStyle=orthogonalEdgeStyle;rounded=0;orthogonalLoop=1;jettySize=auto;html=1;exitX=0.5;exitY=1;exitDx=0;exitDy=0;entryX=0.5;entryY=0;entryDx=0;entryDy=0;endArrow=none;endFill=0;" edge="1" parent="1" source="xLo4uB2U7ToNySubDi_r-51" target="xLo4uB2U7ToNySubDi_r-85">
          <mxGeometry relative="1" as="geometry" />
        </mxCell>
        <mxCell id="xLo4uB2U7ToNySubDi_r-51" value="&lt;font style=&quot;font-size: 12px;&quot;&gt;CELEBRA&lt;br&gt;N:N&lt;/font&gt;" style="shape=rhombus;perimeter=rhombusPerimeter;whiteSpace=wrap;html=1;align=center;verticalAlign=middle;fillColor=#d5e8d4;strokeColor=#82b366;" vertex="1" parent="1">
          <mxGeometry x="75" y="260" width="110" height="70" as="geometry" />
        </mxCell>
        <mxCell id="xLo4uB2U7ToNySubDi_r-60" style="edgeStyle=orthogonalEdgeStyle;rounded=0;orthogonalLoop=1;jettySize=auto;html=1;exitX=0.5;exitY=1;exitDx=0;exitDy=0;entryX=0.5;entryY=0;entryDx=0;entryDy=0;endArrow=none;endFill=0;" edge="1" parent="1" source="xLo4uB2U7ToNySubDi_r-54" target="xLo4uB2U7ToNySubDi_r-58">
          <mxGeometry relative="1" as="geometry" />
        </mxCell>
        <mxCell id="xLo4uB2U7ToNySubDi_r-54" value="TORO" style="whiteSpace=wrap;html=1;align=center;fillColor=#f5f5f5;fontColor=#333333;strokeColor=#666666;" vertex="1" parent="1">
          <mxGeometry x="686" y="400" width="98" height="40" as="geometry" />
        </mxCell>
        <mxCell id="xLo4uB2U7ToNySubDi_r-74" style="edgeStyle=orthogonalEdgeStyle;rounded=0;orthogonalLoop=1;jettySize=auto;html=1;exitX=0;exitY=0.5;exitDx=0;exitDy=0;entryX=1;entryY=0.5;entryDx=0;entryDy=0;endArrow=none;endFill=0;" edge="1" parent="1" source="xLo4uB2U7ToNySubDi_r-55" target="xLo4uB2U7ToNySubDi_r-72">
          <mxGeometry relative="1" as="geometry" />
        </mxCell>
        <mxCell id="xLo4uB2U7ToNySubDi_r-76" style="edgeStyle=orthogonalEdgeStyle;rounded=0;orthogonalLoop=1;jettySize=auto;html=1;exitX=0.5;exitY=1;exitDx=0;exitDy=0;entryX=0.5;entryY=0;entryDx=0;entryDy=0;endArrow=none;endFill=0;" edge="1" parent="1" source="xLo4uB2U7ToNySubDi_r-55" target="xLo4uB2U7ToNySubDi_r-71">
          <mxGeometry relative="1" as="geometry" />
        </mxCell>
        <mxCell id="xLo4uB2U7ToNySubDi_r-55" value="TORERO" style="whiteSpace=wrap;html=1;align=center;fillColor=#f5f5f5;fontColor=#333333;strokeColor=#666666;" vertex="1" parent="1">
          <mxGeometry x="526" y="400" width="98" height="40" as="geometry" />
        </mxCell>
        <mxCell id="xLo4uB2U7ToNySubDi_r-61" style="edgeStyle=orthogonalEdgeStyle;rounded=0;orthogonalLoop=1;jettySize=auto;html=1;exitX=0.5;exitY=1;exitDx=0;exitDy=0;endArrow=none;endFill=0;" edge="1" parent="1" source="xLo4uB2U7ToNySubDi_r-58" target="xLo4uB2U7ToNySubDi_r-59">
          <mxGeometry relative="1" as="geometry" />
        </mxCell>
        <mxCell id="xLo4uB2U7ToNySubDi_r-58" value="VIENE&lt;br&gt;1:N" style="shape=rhombus;perimeter=rhombusPerimeter;whiteSpace=wrap;html=1;align=center;verticalAlign=middle;fillColor=#d5e8d4;strokeColor=#82b366;" vertex="1" parent="1">
          <mxGeometry x="680" y="500" width="110" height="70" as="geometry" />
        </mxCell>
        <mxCell id="xLo4uB2U7ToNySubDi_r-59" value="GANADO" style="whiteSpace=wrap;html=1;align=center;fillColor=#f5f5f5;fontColor=#333333;strokeColor=#666666;" vertex="1" parent="1">
          <mxGeometry x="686" y="660" width="98" height="40" as="geometry" />
        </mxCell>
        <mxCell id="xLo4uB2U7ToNySubDi_r-64" value="(1, 1)" style="text;strokeColor=none;fillColor=none;spacingLeft=4;spacingRight=4;overflow=hidden;rotatable=0;points=[[0,0.5],[1,0.5]];portConstraint=eastwest;fontSize=12;whiteSpace=wrap;html=1;" vertex="1" parent="1">
          <mxGeometry x="734" y="630" width="50" height="30" as="geometry" />
        </mxCell>
        <mxCell id="xLo4uB2U7ToNySubDi_r-65" value="(1, N)" style="text;strokeColor=none;fillColor=none;spacingLeft=4;spacingRight=4;overflow=hidden;rotatable=0;points=[[0,0.5],[1,0.5]];portConstraint=eastwest;fontSize=12;whiteSpace=wrap;html=1;" vertex="1" parent="1">
          <mxGeometry x="740" y="440" width="50" height="30" as="geometry" />
        </mxCell>
        <mxCell id="xLo4uB2U7ToNySubDi_r-67" value="(1, N)" style="text;strokeColor=none;fillColor=none;spacingLeft=4;spacingRight=4;overflow=hidden;rotatable=0;points=[[0,0.5],[1,0.5]];portConstraint=eastwest;fontSize=12;whiteSpace=wrap;html=1;" vertex="1" parent="1">
          <mxGeometry x="740" y="370" width="50" height="30" as="geometry" />
        </mxCell>
        <mxCell id="xLo4uB2U7ToNySubDi_r-68" value="(1, N)" style="text;strokeColor=none;fillColor=none;spacingLeft=4;spacingRight=4;overflow=hidden;rotatable=0;points=[[0,0.5],[1,0.5]];portConstraint=eastwest;fontSize=12;whiteSpace=wrap;html=1;" vertex="1" parent="1">
          <mxGeometry x="648" y="160" width="50" height="30" as="geometry" />
        </mxCell>
        <mxCell id="xLo4uB2U7ToNySubDi_r-69" value="(?)" style="text;strokeColor=none;fillColor=none;spacingLeft=4;spacingRight=4;overflow=hidden;rotatable=0;points=[[0,0.5],[1,0.5]];portConstraint=eastwest;fontSize=12;whiteSpace=wrap;html=1;" vertex="1" parent="1">
          <mxGeometry x="574" y="200" width="50" height="30" as="geometry" />
        </mxCell>
        <mxCell id="xLo4uB2U7ToNySubDi_r-93" style="edgeStyle=orthogonalEdgeStyle;rounded=0;orthogonalLoop=1;jettySize=auto;html=1;exitX=0.5;exitY=1;exitDx=0;exitDy=0;entryX=0.5;entryY=0;entryDx=0;entryDy=0;endArrow=none;endFill=0;" edge="1" parent="1" source="xLo4uB2U7ToNySubDi_r-70" target="xLo4uB2U7ToNySubDi_r-92">
          <mxGeometry relative="1" as="geometry" />
        </mxCell>
        <mxCell id="xLo4uB2U7ToNySubDi_r-70" value="CUADRILLA" style="whiteSpace=wrap;html=1;align=center;fillColor=#f5f5f5;fontColor=#333333;strokeColor=#666666;" vertex="1" parent="1">
          <mxGeometry x="526" y="660" width="98" height="40" as="geometry" />
        </mxCell>
        <mxCell id="xLo4uB2U7ToNySubDi_r-77" style="edgeStyle=orthogonalEdgeStyle;rounded=0;orthogonalLoop=1;jettySize=auto;html=1;exitX=0.5;exitY=1;exitDx=0;exitDy=0;entryX=0.5;entryY=0;entryDx=0;entryDy=0;endArrow=none;endFill=0;" edge="1" parent="1" source="xLo4uB2U7ToNySubDi_r-71" target="xLo4uB2U7ToNySubDi_r-70">
          <mxGeometry relative="1" as="geometry" />
        </mxCell>
        <mxCell id="xLo4uB2U7ToNySubDi_r-71" value="TIENE&lt;br&gt;N:N" style="shape=rhombus;perimeter=rhombusPerimeter;whiteSpace=wrap;html=1;align=center;verticalAlign=middle;fillColor=#d5e8d4;strokeColor=#82b366;" vertex="1" parent="1">
          <mxGeometry x="520" y="500" width="110" height="70" as="geometry" />
        </mxCell>
        <mxCell id="xLo4uB2U7ToNySubDi_r-75" style="edgeStyle=orthogonalEdgeStyle;rounded=0;orthogonalLoop=1;jettySize=auto;html=1;exitX=0.5;exitY=1;exitDx=0;exitDy=0;entryX=0.25;entryY=1;entryDx=0;entryDy=0;endArrow=none;endFill=0;" edge="1" parent="1" source="xLo4uB2U7ToNySubDi_r-72" target="xLo4uB2U7ToNySubDi_r-55">
          <mxGeometry relative="1" as="geometry" />
        </mxCell>
        <mxCell id="xLo4uB2U7ToNySubDi_r-72" value="APADRINA&lt;br&gt;1:N" style="shape=rhombus;perimeter=rhombusPerimeter;whiteSpace=wrap;html=1;align=center;verticalAlign=middle;fillColor=#d5e8d4;strokeColor=#82b366;" vertex="1" parent="1">
          <mxGeometry x="370" y="385" width="110" height="70" as="geometry" />
        </mxCell>
        <mxCell id="xLo4uB2U7ToNySubDi_r-78" value="(1, N)" style="text;strokeColor=none;fillColor=none;spacingLeft=4;spacingRight=4;overflow=hidden;rotatable=0;points=[[0,0.5],[1,0.5]];portConstraint=eastwest;fontSize=12;whiteSpace=wrap;html=1;" vertex="1" parent="1">
          <mxGeometry x="500" y="440" width="50" height="30" as="geometry" />
        </mxCell>
        <mxCell id="xLo4uB2U7ToNySubDi_r-79" value="(1, N)" style="text;strokeColor=none;fillColor=none;spacingLeft=4;spacingRight=4;overflow=hidden;rotatable=0;points=[[0,0.5],[1,0.5]];portConstraint=eastwest;fontSize=12;whiteSpace=wrap;html=1;" vertex="1" parent="1">
          <mxGeometry x="580" y="440" width="50" height="30" as="geometry" />
        </mxCell>
        <mxCell id="xLo4uB2U7ToNySubDi_r-80" value="(1, N)" style="text;strokeColor=none;fillColor=none;spacingLeft=4;spacingRight=4;overflow=hidden;rotatable=0;points=[[0,0.5],[1,0.5]];portConstraint=eastwest;fontSize=12;whiteSpace=wrap;html=1;" vertex="1" parent="1">
          <mxGeometry x="574" y="640" width="50" height="30" as="geometry" />
        </mxCell>
        <mxCell id="xLo4uB2U7ToNySubDi_r-81" value="(0, 1)" style="text;strokeColor=none;fillColor=none;spacingLeft=4;spacingRight=4;overflow=hidden;rotatable=0;points=[[0,0.5],[1,0.5]];portConstraint=eastwest;fontSize=12;whiteSpace=wrap;html=1;" vertex="1" parent="1">
          <mxGeometry x="490" y="390" width="50" height="30" as="geometry" />
        </mxCell>
        <mxCell id="xLo4uB2U7ToNySubDi_r-83" value="(?)" style="text;strokeColor=none;fillColor=none;spacingLeft=4;spacingRight=4;overflow=hidden;rotatable=0;points=[[0,0.5],[1,0.5]];portConstraint=eastwest;fontSize=12;whiteSpace=wrap;html=1;" vertex="1" parent="1">
          <mxGeometry x="574" y="370" width="50" height="30" as="geometry" />
        </mxCell>
        <mxCell id="xLo4uB2U7ToNySubDi_r-89" style="edgeStyle=orthogonalEdgeStyle;rounded=0;orthogonalLoop=1;jettySize=auto;html=1;exitX=0.5;exitY=1;exitDx=0;exitDy=0;entryX=0.5;entryY=0;entryDx=0;entryDy=0;endArrow=none;endFill=0;" edge="1" parent="1" source="xLo4uB2U7ToNySubDi_r-85" target="xLo4uB2U7ToNySubDi_r-87">
          <mxGeometry relative="1" as="geometry" />
        </mxCell>
        <mxCell id="xLo4uB2U7ToNySubDi_r-85" value="PLAZA" style="whiteSpace=wrap;html=1;align=center;fillColor=#f5f5f5;fontColor=#333333;strokeColor=#666666;" vertex="1" parent="1">
          <mxGeometry x="80" y="400" width="100" height="40" as="geometry" />
        </mxCell>
        <mxCell id="xLo4uB2U7ToNySubDi_r-90" style="edgeStyle=orthogonalEdgeStyle;rounded=0;orthogonalLoop=1;jettySize=auto;html=1;exitX=0.5;exitY=1;exitDx=0;exitDy=0;entryX=0.5;entryY=0;entryDx=0;entryDy=0;endArrow=none;endFill=0;" edge="1" parent="1" source="xLo4uB2U7ToNySubDi_r-87" target="xLo4uB2U7ToNySubDi_r-88">
          <mxGeometry relative="1" as="geometry" />
        </mxCell>
        <mxCell id="xLo4uB2U7ToNySubDi_r-107" style="edgeStyle=orthogonalEdgeStyle;rounded=0;orthogonalLoop=1;jettySize=auto;html=1;exitX=1;exitY=1;exitDx=0;exitDy=0;entryX=0;entryY=0.5;entryDx=0;entryDy=0;endArrow=none;endFill=0;dashed=1;dashPattern=1 2;" edge="1" parent="1" source="xLo4uB2U7ToNySubDi_r-87" target="xLo4uB2U7ToNySubDi_r-106">
          <mxGeometry relative="1" as="geometry" />
        </mxCell>
        <mxCell id="xLo4uB2U7ToNySubDi_r-87" value="&lt;font style=&quot;font-size: 12px;&quot;&gt;PERTENECE&lt;br&gt;N:N&lt;br&gt;&lt;/font&gt;" style="shape=rhombus;perimeter=rhombusPerimeter;whiteSpace=wrap;html=1;align=center;verticalAlign=middle;fillColor=#d5e8d4;strokeColor=#82b366;" vertex="1" parent="1">
          <mxGeometry x="75" y="514.5" width="110" height="70" as="geometry" />
        </mxCell>
        <mxCell id="xLo4uB2U7ToNySubDi_r-88" value="DIRECTOR" style="whiteSpace=wrap;html=1;align=center;fillColor=#f5f5f5;fontColor=#333333;strokeColor=#666666;" vertex="1" parent="1">
          <mxGeometry x="80" y="660" width="100" height="40" as="geometry" />
        </mxCell>
        <mxCell id="xLo4uB2U7ToNySubDi_r-103" style="edgeStyle=orthogonalEdgeStyle;rounded=0;orthogonalLoop=1;jettySize=auto;html=1;exitX=1;exitY=0.5;exitDx=0;exitDy=0;entryX=0;entryY=0.5;entryDx=0;entryDy=0;endArrow=none;endFill=0;" edge="1" parent="1" source="xLo4uB2U7ToNySubDi_r-91" target="xLo4uB2U7ToNySubDi_r-92">
          <mxGeometry relative="1" as="geometry" />
        </mxCell>
        <mxCell id="xLo4uB2U7ToNySubDi_r-113" style="edgeStyle=orthogonalEdgeStyle;rounded=0;orthogonalLoop=1;jettySize=auto;html=1;exitX=0.25;exitY=1;exitDx=0;exitDy=0;entryX=1;entryY=0.5;entryDx=0;entryDy=0;endArrow=none;endFill=0;dashed=1;dashPattern=1 2;" edge="1" parent="1" source="xLo4uB2U7ToNySubDi_r-91" target="xLo4uB2U7ToNySubDi_r-111">
          <mxGeometry relative="1" as="geometry" />
        </mxCell>
        <mxCell id="xLo4uB2U7ToNySubDi_r-91" value="PEON" style="whiteSpace=wrap;html=1;align=center;fillColor=#f5f5f5;fontColor=#333333;strokeColor=#666666;" vertex="1" parent="1">
          <mxGeometry x="316" y="760" width="98" height="40" as="geometry" />
        </mxCell>
        <mxCell id="xLo4uB2U7ToNySubDi_r-92" value="CUAD_PE&lt;br&gt;N:N" style="shape=rhombus;perimeter=rhombusPerimeter;whiteSpace=wrap;html=1;align=center;verticalAlign=middle;fillColor=#d5e8d4;strokeColor=#82b366;" vertex="1" parent="1">
          <mxGeometry x="522" y="747.5" width="106" height="65" as="geometry" />
        </mxCell>
        <mxCell id="xLo4uB2U7ToNySubDi_r-95" value="(1, N)" style="text;strokeColor=none;fillColor=none;spacingLeft=4;spacingRight=4;overflow=hidden;rotatable=0;points=[[0,0.5],[1,0.5]];portConstraint=eastwest;fontSize=12;whiteSpace=wrap;html=1;" vertex="1" parent="1">
          <mxGeometry x="580" y="700" width="50" height="30" as="geometry" />
        </mxCell>
        <mxCell id="xLo4uB2U7ToNySubDi_r-98" value="(1, N)" style="text;strokeColor=none;fillColor=none;spacingLeft=4;spacingRight=4;overflow=hidden;rotatable=0;points=[[0,0.5],[1,0.5]];portConstraint=eastwest;fontSize=12;whiteSpace=wrap;html=1;" vertex="1" parent="1">
          <mxGeometry x="135" y="640" width="50" height="30" as="geometry" />
        </mxCell>
        <mxCell id="xLo4uB2U7ToNySubDi_r-99" value="(1, N)" style="text;strokeColor=none;fillColor=none;spacingLeft=4;spacingRight=4;overflow=hidden;rotatable=0;points=[[0,0.5],[1,0.5]];portConstraint=eastwest;fontSize=12;whiteSpace=wrap;html=1;" vertex="1" parent="1">
          <mxGeometry x="130" y="440" width="50" height="30" as="geometry" />
        </mxCell>
        <mxCell id="xLo4uB2U7ToNySubDi_r-100" value="(1, N)" style="text;strokeColor=none;fillColor=none;spacingLeft=4;spacingRight=4;overflow=hidden;rotatable=0;points=[[0,0.5],[1,0.5]];portConstraint=eastwest;fontSize=12;whiteSpace=wrap;html=1;" vertex="1" parent="1">
          <mxGeometry x="75" y="380" width="50" height="30" as="geometry" />
        </mxCell>
        <mxCell id="xLo4uB2U7ToNySubDi_r-101" value="(1, N)" style="text;strokeColor=none;fillColor=none;spacingLeft=4;spacingRight=4;overflow=hidden;rotatable=0;points=[[0,0.5],[1,0.5]];portConstraint=eastwest;fontSize=12;whiteSpace=wrap;html=1;" vertex="1" parent="1">
          <mxGeometry x="80" y="200" width="50" height="30" as="geometry" />
        </mxCell>
        <mxCell id="xLo4uB2U7ToNySubDi_r-102" value="(1, N)" style="text;strokeColor=none;fillColor=none;spacingLeft=4;spacingRight=4;overflow=hidden;rotatable=0;points=[[0,0.5],[1,0.5]];portConstraint=eastwest;fontSize=12;whiteSpace=wrap;html=1;" vertex="1" parent="1">
          <mxGeometry x="414" y="747.5" width="50" height="30" as="geometry" />
        </mxCell>
        <mxCell id="xLo4uB2U7ToNySubDi_r-104" value="fecha_inicio" style="ellipse;whiteSpace=wrap;html=1;align=center;fontStyle=4;" vertex="1" parent="1">
          <mxGeometry x="230" y="529.5" width="100" height="40" as="geometry" />
        </mxCell>
        <mxCell id="xLo4uB2U7ToNySubDi_r-105" style="edgeStyle=orthogonalEdgeStyle;rounded=0;orthogonalLoop=1;jettySize=auto;html=1;exitX=1;exitY=0.5;exitDx=0;exitDy=0;entryX=0;entryY=0.5;entryDx=0;entryDy=0;endArrow=oval;endFill=1;dashed=1;dashPattern=1 2;" edge="1" parent="1" source="xLo4uB2U7ToNySubDi_r-87" target="xLo4uB2U7ToNySubDi_r-104">
          <mxGeometry relative="1" as="geometry" />
        </mxCell>
        <mxCell id="xLo4uB2U7ToNySubDi_r-106" value="fecha_fin" style="ellipse;whiteSpace=wrap;html=1;align=center;fontStyle=0;" vertex="1" parent="1">
          <mxGeometry x="230" y="585" width="100" height="40" as="geometry" />
        </mxCell>
        <mxCell id="xLo4uB2U7ToNySubDi_r-108" value="nombre_temporada" style="ellipse;whiteSpace=wrap;html=1;align=center;fontStyle=4;" vertex="1" parent="1">
          <mxGeometry x="216" y="275" width="114" height="40" as="geometry" />
        </mxCell>
        <mxCell id="xLo4uB2U7ToNySubDi_r-109" style="edgeStyle=orthogonalEdgeStyle;rounded=0;orthogonalLoop=1;jettySize=auto;html=1;exitX=1;exitY=0.5;exitDx=0;exitDy=0;entryX=0;entryY=0.5;entryDx=0;entryDy=0;endArrow=oval;endFill=1;dashed=1;dashPattern=1 2;" edge="1" parent="1" source="xLo4uB2U7ToNySubDi_r-51" target="xLo4uB2U7ToNySubDi_r-108">
          <mxGeometry relative="1" as="geometry" />
        </mxCell>
        <mxCell id="xLo4uB2U7ToNySubDi_r-110" value="fecha_inicio" style="ellipse;whiteSpace=wrap;html=1;align=center;fontStyle=4;" vertex="1" parent="1">
          <mxGeometry x="190" y="760" width="100" height="40" as="geometry" />
        </mxCell>
        <mxCell id="xLo4uB2U7ToNySubDi_r-111" value="fecha_fin" style="ellipse;whiteSpace=wrap;html=1;align=center;fontStyle=0;" vertex="1" parent="1">
          <mxGeometry x="190" y="812.5" width="100" height="40" as="geometry" />
        </mxCell>
        <mxCell id="xLo4uB2U7ToNySubDi_r-112" style="edgeStyle=orthogonalEdgeStyle;rounded=0;orthogonalLoop=1;jettySize=auto;html=1;exitX=0;exitY=0.5;exitDx=0;exitDy=0;entryX=1;entryY=0.5;entryDx=0;entryDy=0;endArrow=oval;endFill=1;dashed=1;dashPattern=1 2;" edge="1" parent="1" source="xLo4uB2U7ToNySubDi_r-91" target="xLo4uB2U7ToNySubDi_r-110">
          <mxGeometry relative="1" as="geometry" />
        </mxCell>
      </root>
    </mxGraphModel>
  </diagram>
</mxfile>
